# xmcd
#
# Track frame offsets: 
#        150
#        19249
#        40050
#        54878
#        72470
#        89057
#        110365
#        129435
#        148454
#        167549
#
# Disc length: 2439 seconds
#
# Revision: 0
# Processed by: cddbd v1.5.2PL0 Copyright (c) Steve Scherf et al.
# Submitted via: ExactAudioCopy v0.99pb5
#
DISCID=8c09850a
DTITLE=Fireball Ministry - Fireball Ministry
DYEAR=2010
DGENRE=Southern Rock
TTITLE0=Hard Lines
TTITLE1=Fallen Believers
TTITLE2=Thought It Out
TTITLE3=Followed by a Fall
TTITLE4=Kick Back
TTITLE5=Butcher, Faker, Policy Maker
TTITLE6=End Of Story
TTITLE7=Common Enemy
TTITLE8=Slepping With Angels
TTITLE9=In Their Own Right
EXTD=
EXTT0=
EXTT1=
EXTT2=
EXTT3=
EXTT4=
EXTT5=
EXTT6=
EXTT7=
EXTT8=
EXTT9=
PLAYORDER=
